<?xml version="1.0" encoding="UTF-8"?>
<svg id="Layer_1" data-name="Layer 1" xmlns="http://www.w3.org/2000/svg" viewBox="0 0 544.22 544.22">
  <defs>
    <style>
      .cls-1 {
        fill: #2b3298;
      }
    </style>
  </defs>
  <path class="cls-1" d="m350.17,201.56c-1.33-.72-1.72-1.44-1.67-2.93.75-23.38-20.04-40.7-42.9-35.84-.63.13-1.57-.15-2.07-.58-18.42-16.1-44.41-16.1-62.84,0-.49.43-1.39.61-2.07.55-2.07-.18-4.11-.71-6.18-.79-20.88-.73-37.45,15.9-36.71,36.84.05,1.35-.3,2-1.52,2.65-12.19,6.53-20.4,16.27-23.32,29.94-2.04,9.57.38,17.89,8.34,24.02,4.72,3.63,10.27,4.7,16.22,4,.3,3.71.42,7.26.91,10.75,3.09,22.18,14.16,39.44,33.45,50.65,25.44,14.78,52.18,15.72,78.63,3.2,23.95-11.34,37.22-30.94,39.81-57.49.23-2.34.29-4.7.43-7.07.39.02.63.03.87.05,16.84,1.39,26.64-12.85,24.02-26.85-2.65-14.19-10.86-24.32-23.41-31.11Zm-113.07,70.07c-6.97-.04-12.67-5.78-12.68-12.75-.01-7.08,5.8-12.85,12.89-12.8,6.97.05,12.67,5.77,12.68,12.75,0,7.09-5.78,12.85-12.89,12.8Zm70.01,0c-7.08.05-12.89-5.75-12.87-12.83.02-6.96,5.74-12.69,12.7-12.72,6.99-.04,12.77,5.61,12.87,12.56.1,7.1-5.62,12.95-12.7,12.99Z"/>
  <path class="cls-1" d="m272.11,0C2.1,0,0,121.83,0,272.11s2.1,272.11,272.11,272.11,272.11-121.83,272.11-272.11S542.12,0,272.11,0Zm-52.94,420.61c-.14,10.03-8.36,17.76-18.37,17.41-8.62-.3-16.25-7.02-16.69-15.81-.51-10.36-.12-20.76-.12-31.41,11.11,5.69,22.7,7.78,35.04,5.83.06.43.16.83.16,1.23,0,7.58.08,15.17-.02,22.75Zm141.11.16c-.1,8.96-7,16.28-15.96,17.2-8.56.87-16.71-4.91-18.77-13.4-.31-1.3-.49-2.66-.5-3.99-.05-7.58-.03-15.17-.02-22.75,0-.36.05-.72.09-1.22,6.18.97,12.14.96,18.11-.05,5.89-.99,11.46-2.92,16.93-5.76.07.45.14.72.14.98,0,9.66.08,19.32-.03,28.98Zm54.24-118.71c-5.71,17.63-18.66,27.37-36.81,30.45,2.69,18.15-2.47,33.5-17.47,44.42-14.99,10.92-31.18,11.21-47.8,2.99-16.5,34.8-65.21,33.84-80.68.02-16.45,8.16-32.63,7.95-47.66-2.93-15.06-10.9-20.24-26.21-17.6-44.5-18-3.03-30.99-12.71-36.75-30.31-5.77-17.62-1.01-33.1,11.88-46.29-12.84-13.07-17.63-28.54-11.92-46.16,5.71-17.64,18.68-27.34,36.79-30.44-2.65-18.22,2.52-33.59,17.64-44.52,15.05-10.88,31.22-11.06,47.65-2.9,16.48-34.72,65.11-33.91,80.67,0,16.52-8.21,32.76-7.96,47.81,3.02,14.99,10.94,20.15,26.28,17.43,44.42,37.79,5.1,52.32,50.58,24.87,76.55,12.85,13.1,17.65,28.57,11.95,46.19Z"/>
</svg>